<?xml version="1.0" standalone="no"?><!-- Generator: Gravit.io --><svg xmlns="http://www.w3.org/2000/svg" xmlns:xlink="http://www.w3.org/1999/xlink" style="isolation:isolate" viewBox="0 0 1000 600" width="1000px" height="600px"><defs><clipPath id="_clipPath_z3JJiR8Ae6NqylYDbZ1rZW6NWSJ6v9SE"><rect width="1000" height="600"/></clipPath></defs><g clip-path="url(#_clipPath_z3JJiR8Ae6NqylYDbZ1rZW6NWSJ6v9SE)"><defs><filter id="c1tTrsGBFBDLNGsU0C1G8sZaIhRcf0Ig" x="-200%" y="-200%" width="400%" height="400%" filterUnits="objectBoundingBox" color-interpolation-filters="sRGB"><feGaussianBlur xmlns="http://www.w3.org/2000/svg" in="SourceGraphic" stdDeviation="2.146804531419514"/><feOffset xmlns="http://www.w3.org/2000/svg" dx="0" dy="0" result="pf_100_offsetBlur"/><feFlood xmlns="http://www.w3.org/2000/svg" flood-color="#000000" flood-opacity="0.65"/><feComposite xmlns="http://www.w3.org/2000/svg" in2="pf_100_offsetBlur" operator="in" result="pf_100_dropShadow"/><feBlend xmlns="http://www.w3.org/2000/svg" in="SourceGraphic" in2="pf_100_dropShadow" mode="normal" result="_out_HScvm8blSHsyKQzOpgsE8KVFftZYgW4x"/><feOffset xmlns="http://www.w3.org/2000/svg" in="_out_HScvm8blSHsyKQzOpgsE8KVFftZYgW4x" dx="0" dy="0"/><feGaussianBlur xmlns="http://www.w3.org/2000/svg" stdDeviation="2.146804531419514" result="pf_101_offsetBlur"/><feComposite xmlns="http://www.w3.org/2000/svg" in="_out_HScvm8blSHsyKQzOpgsE8KVFftZYgW4x" in2="pf_101_offsetBlur" result="pf_101_inverse" operator="out"/><feFlood xmlns="http://www.w3.org/2000/svg" flood-color="#000000" flood-opacity="0.5" result="pf_101_color"/><feComposite xmlns="http://www.w3.org/2000/svg" in="pf_101_color" in2="pf_101_inverse" operator="in" result="pf_101_shadow"/><feComposite xmlns="http://www.w3.org/2000/svg" in="pf_101_shadow" in2="_out_HScvm8blSHsyKQzOpgsE8KVFftZYgW4x" operator="over" result="_out_WX9mCLJbd5hA0OsqbkYVsRemvqkKQH4r"/><feMerge><feMergeNode in="_out_WX9mCLJbd5hA0OsqbkYVsRemvqkKQH4r"/></feMerge></filter></defs><g filter="url(#c1tTrsGBFBDLNGsU0C1G8sZaIhRcf0Ig)"><path d=" M 786.907 199.457 L 786.907 199.457 C 807.826 214.699 822.201 237.284 829.13 262.448 L 952.428 217.677 C 936.647 160.277 903.792 108.701 856.05 73.974 L 855.93 74.191 C 835.287 59.189 813.354 48.418 790.921 41.623 L 790.921 41.623 L 790.936 41.59 L 790.936 41.59 L 790.819 41.59 L 745.977 41.59 L 693.101 142.557 L 640.224 41.59 L 591.592 41.59 L 668.218 187.679 L 668.218 268.842 L 714.028 268.842 L 714.028 188.329 L 716.676 183.277 C 740.159 178.769 765.089 183.889 786.787 199.676 L 786.907 199.457 Z  M 736.49 413.763 C 718.39 414.312 699.984 409.31 683.284 398.201 L 683.284 398.201 L 683.284 398.201 L 683.284 398.201 L 683.064 310.409 L 645.458 310.409 L 572.505 451.63 L 498.421 310.409 L 460.533 310.409 L 460.533 537.661 L 503.512 537.661 L 503.512 404.231 L 561.479 513.634 L 582.118 513.634 L 639.676 402.642 L 639.676 539.045 C 672.714 556.229 707.95 563.634 742.621 562.112 L 742.619 562.052 C 815.361 558.365 885.408 515.288 927.33 439.311 C 935.847 423.888 942.783 407.829 948.213 391.425 C 959.612 356.978 964.342 320.862 962.873 285.317 C 961.913 262.427 958.374 239.758 952.366 217.937 L 829.072 262.712 C 837.738 294.223 834.692 329.739 818.09 359.842 C 799.591 393.375 768.599 412.298 736.489 413.716 L 736.49 413.763 L 736.49 413.763 Z  M 140.166 541.557 L 140.166 541.557 Q 109.911 541.557 85.453 526.457 L 85.453 526.457 L 85.453 526.457 Q 60.994 511.362 46.995 484.58 L 46.995 484.58 L 46.995 484.58 Q 33 457.798 33 424.035 L 33 424.035 L 33 424.035 Q 33 390.272 46.995 363.49 L 46.995 363.49 L 46.995 363.49 Q 60.994 336.704 85.453 321.609 L 85.453 321.609 L 85.453 321.609 Q 109.911 306.513 140.447 306.513 L 140.447 306.513 L 140.447 306.513 Q 166.181 306.513 186.962 316.904 L 186.962 316.904 L 186.962 316.904 Q 207.746 327.291 221.884 346.768 L 221.884 346.768 L 192.477 377.935 L 192.477 377.935 Q 172.4 351.313 142.712 351.313 L 142.712 351.313 L 142.712 351.313 Q 124.33 351.313 109.911 360.567 L 109.911 360.567 L 109.911 360.567 Q 95.489 369.818 87.432 386.376 L 87.432 386.376 L 87.432 386.376 Q 79.372 402.931 79.372 424.035 L 79.372 424.035 L 79.372 424.035 Q 79.372 445.135 87.432 461.694 L 87.432 461.694 L 87.432 461.694 Q 95.489 478.248 109.911 487.503 L 109.911 487.503 L 109.911 487.503 Q 124.33 496.753 142.712 496.753 L 142.712 496.753 L 142.712 496.753 Q 172.4 496.753 192.477 469.808 L 192.477 469.808 L 221.884 500.975 L 221.884 500.975 Q 207.746 520.78 186.823 531.166 L 186.823 531.166 L 186.823 531.166 Q 165.896 541.557 140.166 541.557 L 140.166 541.557 L 140.166 541.557 L 140.166 541.557 L 140.166 541.557 L 140.166 541.557 Z  M 377.968 392.867 L 377.968 392.867 Q 377.968 373.713 367.223 363.49 L 367.223 363.49 L 367.223 363.49 Q 356.478 353.263 335.836 353.263 L 335.836 353.263 L 298.511 353.263 L 298.511 432.476 L 335.836 432.476 L 335.836 432.476 Q 356.478 432.476 367.223 422.085 L 367.223 422.085 L 367.223 422.085 Q 377.968 411.699 377.968 392.867 L 377.968 392.867 L 377.968 392.867 L 377.968 392.867 L 377.968 392.867 L 377.968 392.867 Z  M 428.014 537.661 L 378.815 537.661 L 340.642 474.353 L 338.382 474.353 L 298.511 474.353 L 298.511 537.661 L 252.705 537.661 L 252.705 310.409 L 338.382 310.409 L 338.382 310.409 Q 364.677 310.409 384.045 320.472 L 384.045 320.472 L 384.045 320.472 Q 403.416 330.536 413.876 349.04 L 413.876 349.04 L 413.876 349.04 Q 424.34 367.545 424.34 392.867 L 424.34 392.867 L 424.34 392.867 Q 424.34 418.19 413.737 436.535 L 413.737 436.535 L 413.737 436.535 Q 403.131 454.876 383.621 464.616 L 383.621 464.616 L 428.014 537.661 L 428.014 537.661 L 428.014 537.661 L 428.014 537.661 L 428.014 537.661 Z  M 82.06 226.638 L 189.789 226.638 L 189.789 268.842 L 36.535 268.842 L 36.535 41.59 L 186.114 41.59 L 186.114 83.794 L 82.06 83.794 L 82.06 133.139 L 173.956 133.139 L 173.956 174.047 L 82.06 174.047 L 82.06 226.638 L 82.06 226.638 L 82.06 226.638 Z  M 279.424 180.216 L 342.198 180.216 L 310.811 93.208 L 279.424 180.216 L 279.424 180.216 L 279.424 180.216 Z  M 507.894 272.738 L 507.894 272.738 Q 484.425 272.738 462.512 265.433 L 462.512 265.433 L 462.512 265.433 Q 440.599 258.129 427.309 246.442 L 427.309 246.442 L 442.86 206.834 L 442.86 206.834 Q 455.584 217.547 473.115 224.042 L 473.115 224.042 L 473.115 224.042 Q 490.645 230.533 508.179 230.533 L 508.179 230.533 L 508.179 230.533 Q 527.689 230.533 537.021 223.879 L 537.021 223.879 L 537.021 223.879 Q 546.348 217.224 546.348 206.184 L 546.348 206.184 L 546.348 206.184 Q 546.348 198.07 540.837 192.711 L 540.837 192.711 L 540.837 192.711 Q 535.322 187.357 526.7 184.111 L 526.7 184.111 L 526.7 184.111 Q 518.073 180.861 503.369 176.966 L 503.369 176.966 L 503.369 176.966 Q 480.751 170.798 466.329 164.63 L 466.329 164.63 L 466.329 164.63 Q 451.91 158.461 441.589 144.83 L 441.589 144.83 L 441.589 144.83 Q 431.268 131.193 431.268 108.466 L 431.268 108.466 L 431.268 108.466 Q 431.268 88.666 440.599 72.594 L 440.599 72.594 L 440.599 72.594 Q 449.93 56.526 468.732 47.112 L 468.732 47.112 L 468.732 47.112 Q 487.537 37.694 514.68 37.694 L 514.68 37.694 L 514.68 37.694 Q 533.624 37.694 551.721 42.89 L 551.721 42.89 L 551.721 42.89 Q 569.817 48.085 583.392 57.822 L 583.392 57.822 L 569.255 97.753 L 569.255 97.753 Q 541.827 79.898 514.399 79.898 L 514.399 79.898 L 514.399 79.898 Q 495.17 79.898 485.981 87.039 L 485.981 87.039 L 485.981 87.039 Q 476.792 94.185 476.792 105.871 L 476.792 105.871 L 476.792 105.871 Q 476.792 117.557 487.395 123.239 L 487.395 123.239 L 487.395 123.239 Q 497.997 128.921 519.771 134.439 L 519.771 134.439 L 519.771 134.439 Q 542.393 140.607 556.812 146.775 L 556.812 146.775 L 556.812 146.775 Q 571.234 152.943 581.552 166.252 L 581.552 166.252 L 581.552 166.252 Q 591.873 179.566 591.873 202.288 L 591.873 202.288 L 591.873 202.288 Q 591.873 221.77 582.403 237.838 L 582.403 237.838 L 582.403 237.838 Q 572.929 253.906 553.985 263.324 L 553.985 263.324 L 553.985 263.324 Q 535.041 272.738 507.894 272.738 L 507.894 272.738 L 507.894 272.738 L 507.894 272.738 Z  M 374.147 268.842 L 356.617 220.143 L 264.721 220.143 L 247.19 268.842 L 200.252 268.842 L 288.474 41.59 L 333.714 41.59 L 422.218 268.842 L 374.147 268.842 L 374.147 268.842 L 374.147 268.842 Z " fill-rule="evenodd" fill="rgb(255,255,255)"/></g></g></svg>