<?xml version="1.0" standalone="no"?><!-- Generator: Gravit.io --><svg xmlns="http://www.w3.org/2000/svg" xmlns:xlink="http://www.w3.org/1999/xlink" style="isolation:isolate" viewBox="0 0 414 736" width="414px" height="736px"><defs><clipPath id="_clipPath_ee8g68elqH1YctJ7LsBGj184Xnz7OTml"><rect width="414" height="736"/></clipPath></defs><g clip-path="url(#_clipPath_ee8g68elqH1YctJ7LsBGj184Xnz7OTml)"><defs><filter id="XKzcXpmGSNKXgwVjq5RUW11AVvY2gXZA" x="-200%" y="-200%" width="400%" height="400%" filterUnits="objectBoundingBox" color-interpolation-filters="sRGB"><feGaussianBlur xmlns="http://www.w3.org/2000/svg" in="SourceGraphic" stdDeviation="2.146804531419514"/><feOffset xmlns="http://www.w3.org/2000/svg" dx="0" dy="0" result="pf_100_offsetBlur"/><feFlood xmlns="http://www.w3.org/2000/svg" flood-color="#000000" flood-opacity="0.2"/><feComposite xmlns="http://www.w3.org/2000/svg" in2="pf_100_offsetBlur" operator="in" result="pf_100_dropShadow"/><feBlend xmlns="http://www.w3.org/2000/svg" in="SourceGraphic" in2="pf_100_dropShadow" mode="normal"/></filter></defs><g filter="url(#XKzcXpmGSNKXgwVjq5RUW11AVvY2gXZA)"><linearGradient id="_lgradient_0" x1="0.26152286817469794" y1="0.9570554284846089" x2="0.7506639085675295" y2="0.27722088629718067" gradientTransform="matrix(702.052,-103.136,86.917,591.65,-221.833,331.944)" gradientUnits="userSpaceOnUse"><stop offset="0%" stop-opacity="1" style="stop-color:rgb(255,0,255)"/><stop offset="57.391304347826086%" stop-opacity="1" style="stop-color:rgb(153,0,255)"/><stop offset="100%" stop-opacity="1" style="stop-color:rgb(5,0,255)"/></linearGradient><path d=" M -176.322 325.258 Q 187.352 736.769 452.919 659.347 C 718.486 581.926 313.274 857.751 303.38 859.205 C 293.486 860.658 27.896 896.643 -10.863 894.251 C -49.623 891.859 -136.594 857.131 -143.95 820.815 C -151.307 784.499 -168.055 698.015 -170.962 678.227 C -173.869 658.439 -188.577 551.441 -189.069 534.331 C -189.561 517.221 -192.636 455.007 -195.543 435.219 Q -198.45 415.432 -176.322 325.258 Z " fill="url(#_lgradient_0)" style=":undefined;" vector-effect="non-scaling-stroke" stroke-width="1" stroke="rgb(255,255,255)" stroke-linejoin="miter" stroke-linecap="square" stroke-miterlimit="3"/></g><defs><filter id="kiuHdVwAIgtsX8cpof2CAF7EaSorg9MC" x="-200%" y="-200%" width="400%" height="400%" filterUnits="objectBoundingBox" color-interpolation-filters="sRGB"><feGaussianBlur xmlns="http://www.w3.org/2000/svg" in="SourceGraphic" stdDeviation="2.146804531419514"/><feOffset xmlns="http://www.w3.org/2000/svg" dx="0" dy="0" result="pf_100_offsetBlur"/><feFlood xmlns="http://www.w3.org/2000/svg" flood-color="#000000" flood-opacity="0.2"/><feComposite xmlns="http://www.w3.org/2000/svg" in2="pf_100_offsetBlur" operator="in" result="pf_100_dropShadow"/><feBlend xmlns="http://www.w3.org/2000/svg" in="SourceGraphic" in2="pf_100_dropShadow" mode="normal" result="_out_JpCndKpFqJM7vUe4XdRHHe1vPzUswUCV"/><feGaussianBlur xmlns="http://www.w3.org/2000/svg" in="_out_JpCndKpFqJM7vUe4XdRHHe1vPzUswUCV" stdDeviation="2.146804531419514"/><feOffset xmlns="http://www.w3.org/2000/svg" dx="0" dy="0" result="pf_101_offsetBlur"/><feFlood xmlns="http://www.w3.org/2000/svg" flood-color="#000000" flood-opacity="0.65"/><feComposite xmlns="http://www.w3.org/2000/svg" in2="pf_101_offsetBlur" operator="in" result="pf_101_dropShadow"/><feBlend xmlns="http://www.w3.org/2000/svg" in="_out_JpCndKpFqJM7vUe4XdRHHe1vPzUswUCV" in2="pf_101_dropShadow" mode="normal" result="_out_ex8b5pla970szse447u4lZgLDLrTPnEY"/><feMerge><feMergeNode in="_out_ex8b5pla970szse447u4lZgLDLrTPnEY"/></feMerge><feGaussianBlur xmlns="http://www.w3.org/2000/svg" stdDeviation="2.146804531419514"/></filter></defs><g filter="url(#kiuHdVwAIgtsX8cpof2CAF7EaSorg9MC)"><path d=" M -169.441 386.09 Q 221.14 772.155 480.886 677.012 C 740.631 581.868 354.929 884.376 345.156 886.493 C 335.383 888.61 72.822 942.413 33.989 942.638 C -4.843 942.864 -93.957 914.077 -103.744 878.339 C -113.532 842.601 -136.07 757.442 -140.304 737.895 C -144.538 718.349 -166.424 612.585 -168.068 595.547 C -169.713 578.509 -176.974 516.644 -181.208 497.097 Q -185.442 477.55 -169.441 386.09 Z " fill="rgb(255,255,255)" style=":undefined;" vector-effect="non-scaling-stroke" stroke-width="1" stroke="rgb(255,255,255)" stroke-linejoin="miter" stroke-linecap="square" stroke-miterlimit="3"/></g><linearGradient id="_lgradient_1" x1="0.26152286817469794" y1="0.9570554284846089" x2="0.7506639085675295" y2="0.27722088629718067" gradientTransform="matrix(-709.569,-5.104,3.291,-457.501,626.784,325.589)" gradientUnits="userSpaceOnUse"><stop offset="0%" stop-opacity="1" style="stop-color:rgb(255,0,255)"/><stop offset="41.30434782608695%" stop-opacity="1" style="stop-color:rgb(153,0,255)"/><stop offset="98.26086956521739%" stop-opacity="0.64" style="stop-color:rgb(0,0,255)"/></linearGradient><path d=" M 580.786 325.258 Q 283.325 -28.824 9.123 -1.723 C -265.079 25.378 177.087 -135.17 187.087 -135.098 C 197.086 -135.027 465.063 -130.804 503.018 -124.41 C 540.973 -118.016 621.712 -81.476 623.509 -53.155 C 625.305 -24.834 628.821 42.52 628.71 57.821 C 628.6 73.122 627.006 155.74 624.913 168.732 C 622.819 181.723 616.478 229.113 616.368 244.414 Q 616.258 259.715 580.786 325.258 Z " fill="url(#_lgradient_1)" style=":undefined;" vector-effect="non-scaling-stroke" stroke-width="1" stroke="rgb(255,255,255)" stroke-linejoin="miter" stroke-linecap="square" stroke-miterlimit="3"/><defs><filter id="iCBTZkiXzwmzEOZKMvgr0flZG56ZKkKG" x="-200%" y="-200%" width="400%" height="400%" filterUnits="objectBoundingBox" color-interpolation-filters="sRGB"><feGaussianBlur xmlns="http://www.w3.org/2000/svg" in="SourceGraphic" stdDeviation="2.146804531419514"/><feOffset xmlns="http://www.w3.org/2000/svg" dx="0" dy="0" result="pf_100_offsetBlur"/><feFlood xmlns="http://www.w3.org/2000/svg" flood-color="#000000" flood-opacity="0.2"/><feComposite xmlns="http://www.w3.org/2000/svg" in2="pf_100_offsetBlur" operator="in" result="pf_100_dropShadow"/><feBlend xmlns="http://www.w3.org/2000/svg" in="SourceGraphic" in2="pf_100_dropShadow" mode="normal"/></filter></defs><g filter="url(#iCBTZkiXzwmzEOZKMvgr0flZG56ZKkKG)"><linearGradient id="_lgradient_2" x1="0.26152286817469794" y1="0.9570554284846089" x2="0.7506639085675295" y2="0.27722088629718067" gradientTransform="matrix(702.052,-103.136,86.917,591.65,-237.833,374.686)" gradientUnits="userSpaceOnUse"><stop offset="0%" stop-opacity="1" style="stop-color:rgb(255,0,255)"/><stop offset="57.391304347826086%" stop-opacity="1" style="stop-color:rgb(153,0,255)"/><stop offset="100%" stop-opacity="1" style="stop-color:rgb(5,0,255)"/></linearGradient><path d=" M -192.322 368 Q 171.352 779.511 436.919 702.09 C 702.486 624.668 297.274 900.494 287.38 901.947 C 277.486 903.4 11.896 939.385 -26.863 936.993 C -65.623 934.602 -152.594 899.874 -159.95 863.557 C -167.307 827.241 -184.055 740.757 -186.962 720.969 C -189.869 701.182 -204.577 594.183 -205.069 577.073 C -205.561 559.963 -208.636 497.749 -211.543 477.961 Q -214.45 458.174 -192.322 368 Z " fill="url(#_lgradient_2)" style=":undefined;" vector-effect="non-scaling-stroke" stroke-width="1" stroke="rgb(255,255,255)" stroke-linejoin="miter" stroke-linecap="square" stroke-miterlimit="3"/></g></g></svg>